<mxfile host="app.diagrams.net" modified="2023-12-23T18:07:38.559Z" agent="Mozilla/5.0 (Windows NT 10.0; Win64; x64) AppleWebKit/537.36 (KHTML, like Gecko) Chrome/120.0.0.0 Safari/537.36" etag="9L5lX9kpJ1eZEb8mKK3u" version="22.1.11" type="device">
  <diagram name="Página-1" id="RQ02QHly7urKivJd4r59">
    <mxGraphModel dx="2620" dy="2144" grid="1" gridSize="10" guides="1" tooltips="1" connect="1" arrows="1" fold="1" page="1" pageScale="1" pageWidth="827" pageHeight="1169" math="0" shadow="0">
      <root>
        <mxCell id="0" />
        <mxCell id="1" parent="0" />
        <mxCell id="vjCn4-SrqpU4wcJ7OJ6y-114" style="edgeStyle=orthogonalEdgeStyle;rounded=0;orthogonalLoop=1;jettySize=auto;html=1;" parent="1" source="vjCn4-SrqpU4wcJ7OJ6y-1" target="vjCn4-SrqpU4wcJ7OJ6y-112" edge="1">
          <mxGeometry relative="1" as="geometry">
            <Array as="points">
              <mxPoint x="220" y="905" />
            </Array>
          </mxGeometry>
        </mxCell>
        <mxCell id="vjCn4-SrqpU4wcJ7OJ6y-143" style="edgeStyle=orthogonalEdgeStyle;rounded=0;orthogonalLoop=1;jettySize=auto;html=1;" parent="1" source="vjCn4-SrqpU4wcJ7OJ6y-1" target="vjCn4-SrqpU4wcJ7OJ6y-43" edge="1">
          <mxGeometry relative="1" as="geometry">
            <Array as="points">
              <mxPoint x="260" y="210" />
              <mxPoint x="150" y="210" />
              <mxPoint x="150" y="80" />
            </Array>
          </mxGeometry>
        </mxCell>
        <mxCell id="vjCn4-SrqpU4wcJ7OJ6y-144" style="edgeStyle=orthogonalEdgeStyle;rounded=0;orthogonalLoop=1;jettySize=auto;html=1;" parent="1" source="vjCn4-SrqpU4wcJ7OJ6y-1" target="vjCn4-SrqpU4wcJ7OJ6y-33" edge="1">
          <mxGeometry relative="1" as="geometry">
            <Array as="points">
              <mxPoint x="80" y="-40" />
            </Array>
          </mxGeometry>
        </mxCell>
        <mxCell id="vjCn4-SrqpU4wcJ7OJ6y-1" value="Usuario" style="swimlane;fontStyle=1;align=center;verticalAlign=top;childLayout=stackLayout;horizontal=1;startSize=26;horizontalStack=0;resizeParent=1;resizeParentMax=0;resizeLast=0;collapsible=1;marginBottom=0;whiteSpace=wrap;html=1;" parent="1" vertex="1">
          <mxGeometry x="40" y="201" width="460" height="234" as="geometry" />
        </mxCell>
        <mxCell id="vjCn4-SrqpU4wcJ7OJ6y-5" value="Nome:string" style="text;strokeColor=none;fillColor=none;align=left;verticalAlign=top;spacingLeft=4;spacingRight=4;overflow=hidden;rotatable=0;points=[[0,0.5],[1,0.5]];portConstraint=eastwest;whiteSpace=wrap;html=1;" parent="vjCn4-SrqpU4wcJ7OJ6y-1" vertex="1">
          <mxGeometry y="26" width="460" height="26" as="geometry" />
        </mxCell>
        <mxCell id="vjCn4-SrqpU4wcJ7OJ6y-58" value="Senha:string" style="text;strokeColor=none;fillColor=none;align=left;verticalAlign=top;spacingLeft=4;spacingRight=4;overflow=hidden;rotatable=0;points=[[0,0.5],[1,0.5]];portConstraint=eastwest;whiteSpace=wrap;html=1;" parent="vjCn4-SrqpU4wcJ7OJ6y-1" vertex="1">
          <mxGeometry y="52" width="460" height="26" as="geometry" />
        </mxCell>
        <mxCell id="vjCn4-SrqpU4wcJ7OJ6y-56" value="E-mail:string" style="text;strokeColor=none;fillColor=none;align=left;verticalAlign=top;spacingLeft=4;spacingRight=4;overflow=hidden;rotatable=0;points=[[0,0.5],[1,0.5]];portConstraint=eastwest;whiteSpace=wrap;html=1;" parent="vjCn4-SrqpU4wcJ7OJ6y-1" vertex="1">
          <mxGeometry y="78" width="460" height="26" as="geometry" />
        </mxCell>
        <mxCell id="vjCn4-SrqpU4wcJ7OJ6y-106" value="Telefone:int" style="text;strokeColor=none;fillColor=none;align=left;verticalAlign=top;spacingLeft=4;spacingRight=4;overflow=hidden;rotatable=0;points=[[0,0.5],[1,0.5]];portConstraint=eastwest;whiteSpace=wrap;html=1;" parent="vjCn4-SrqpU4wcJ7OJ6y-1" vertex="1">
          <mxGeometry y="104" width="460" height="26" as="geometry" />
        </mxCell>
        <mxCell id="WYJxad_hsXA3DpRj8TqN-5" value="Plano:List&amp;lt;Assinatura&amp;gt;" style="text;strokeColor=none;fillColor=none;align=left;verticalAlign=top;spacingLeft=4;spacingRight=4;overflow=hidden;rotatable=0;points=[[0,0.5],[1,0.5]];portConstraint=eastwest;whiteSpace=wrap;html=1;" vertex="1" parent="vjCn4-SrqpU4wcJ7OJ6y-1">
          <mxGeometry y="130" width="460" height="26" as="geometry" />
        </mxCell>
        <mxCell id="WYJxad_hsXA3DpRj8TqN-4" value="Playlists:List&amp;lt;PlayList&amp;gt;" style="text;strokeColor=none;fillColor=none;align=left;verticalAlign=top;spacingLeft=4;spacingRight=4;overflow=hidden;rotatable=0;points=[[0,0.5],[1,0.5]];portConstraint=eastwest;whiteSpace=wrap;html=1;" vertex="1" parent="vjCn4-SrqpU4wcJ7OJ6y-1">
          <mxGeometry y="156" width="460" height="26" as="geometry" />
        </mxCell>
        <mxCell id="vjCn4-SrqpU4wcJ7OJ6y-21" value="Cartao:List&amp;lt;Cartao&amp;gt;" style="text;strokeColor=none;fillColor=none;align=left;verticalAlign=top;spacingLeft=4;spacingRight=4;overflow=hidden;rotatable=0;points=[[0,0.5],[1,0.5]];portConstraint=eastwest;whiteSpace=wrap;html=1;" parent="vjCn4-SrqpU4wcJ7OJ6y-1" vertex="1">
          <mxGeometry y="182" width="460" height="26" as="geometry" />
        </mxCell>
        <mxCell id="WYJxad_hsXA3DpRj8TqN-6" value="Notificacoes:List&amp;lt;Notificacoes&amp;gt;" style="text;strokeColor=none;fillColor=none;align=left;verticalAlign=top;spacingLeft=4;spacingRight=4;overflow=hidden;rotatable=0;points=[[0,0.5],[1,0.5]];portConstraint=eastwest;whiteSpace=wrap;html=1;" vertex="1" parent="vjCn4-SrqpU4wcJ7OJ6y-1">
          <mxGeometry y="208" width="460" height="26" as="geometry" />
        </mxCell>
        <mxCell id="vjCn4-SrqpU4wcJ7OJ6y-53" style="edgeStyle=orthogonalEdgeStyle;rounded=0;orthogonalLoop=1;jettySize=auto;html=1;" parent="1" source="vjCn4-SrqpU4wcJ7OJ6y-16" target="WYJxad_hsXA3DpRj8TqN-27" edge="1">
          <mxGeometry relative="1" as="geometry" />
        </mxCell>
        <mxCell id="vjCn4-SrqpU4wcJ7OJ6y-16" value="Endereço" style="swimlane;fontStyle=0;childLayout=stackLayout;horizontal=1;startSize=26;fillColor=none;horizontalStack=0;resizeParent=1;resizeParentMax=0;resizeLast=0;collapsible=1;marginBottom=0;whiteSpace=wrap;html=1;" parent="1" vertex="1">
          <mxGeometry x="480" y="488" width="210" height="216" as="geometry" />
        </mxCell>
        <mxCell id="vjCn4-SrqpU4wcJ7OJ6y-11" value="CEP: int" style="text;strokeColor=none;fillColor=none;align=left;verticalAlign=top;spacingLeft=4;spacingRight=4;overflow=hidden;rotatable=0;points=[[0,0.5],[1,0.5]];portConstraint=eastwest;whiteSpace=wrap;html=1;" parent="vjCn4-SrqpU4wcJ7OJ6y-16" vertex="1">
          <mxGeometry y="26" width="210" height="26" as="geometry" />
        </mxCell>
        <mxCell id="vjCn4-SrqpU4wcJ7OJ6y-15" value="Estado:string" style="text;strokeColor=none;fillColor=none;align=left;verticalAlign=top;spacingLeft=4;spacingRight=4;overflow=hidden;rotatable=0;points=[[0,0.5],[1,0.5]];portConstraint=eastwest;whiteSpace=wrap;html=1;" parent="vjCn4-SrqpU4wcJ7OJ6y-16" vertex="1">
          <mxGeometry y="52" width="210" height="26" as="geometry" />
        </mxCell>
        <mxCell id="vjCn4-SrqpU4wcJ7OJ6y-14" value="Cidade:string" style="text;strokeColor=none;fillColor=none;align=left;verticalAlign=top;spacingLeft=4;spacingRight=4;overflow=hidden;rotatable=0;points=[[0,0.5],[1,0.5]];portConstraint=eastwest;whiteSpace=wrap;html=1;" parent="vjCn4-SrqpU4wcJ7OJ6y-16" vertex="1">
          <mxGeometry y="78" width="210" height="26" as="geometry" />
        </mxCell>
        <mxCell id="vjCn4-SrqpU4wcJ7OJ6y-10" value="Rua: string" style="text;strokeColor=none;fillColor=none;align=left;verticalAlign=top;spacingLeft=4;spacingRight=4;overflow=hidden;rotatable=0;points=[[0,0.5],[1,0.5]];portConstraint=eastwest;whiteSpace=wrap;html=1;" parent="vjCn4-SrqpU4wcJ7OJ6y-16" vertex="1">
          <mxGeometry y="104" width="210" height="26" as="geometry" />
        </mxCell>
        <mxCell id="vjCn4-SrqpU4wcJ7OJ6y-12" value="Numero: string" style="text;strokeColor=none;fillColor=none;align=left;verticalAlign=top;spacingLeft=4;spacingRight=4;overflow=hidden;rotatable=0;points=[[0,0.5],[1,0.5]];portConstraint=eastwest;whiteSpace=wrap;html=1;" parent="vjCn4-SrqpU4wcJ7OJ6y-16" vertex="1">
          <mxGeometry y="130" width="210" height="26" as="geometry" />
        </mxCell>
        <mxCell id="vjCn4-SrqpU4wcJ7OJ6y-13" value="Complemento: string" style="text;strokeColor=none;fillColor=none;align=left;verticalAlign=top;spacingLeft=4;spacingRight=4;overflow=hidden;rotatable=0;points=[[0,0.5],[1,0.5]];portConstraint=eastwest;whiteSpace=wrap;html=1;" parent="vjCn4-SrqpU4wcJ7OJ6y-16" vertex="1">
          <mxGeometry y="156" width="210" height="26" as="geometry" />
        </mxCell>
        <mxCell id="vjCn4-SrqpU4wcJ7OJ6y-69" value="" style="line;strokeWidth=1;fillColor=none;align=left;verticalAlign=middle;spacingTop=-1;spacingLeft=3;spacingRight=3;rotatable=0;labelPosition=right;points=[];portConstraint=eastwest;strokeColor=inherit;" parent="vjCn4-SrqpU4wcJ7OJ6y-16" vertex="1">
          <mxGeometry y="182" width="210" height="8" as="geometry" />
        </mxCell>
        <mxCell id="vjCn4-SrqpU4wcJ7OJ6y-70" value="+ Registrar(EnderecoDTO): void" style="text;strokeColor=none;fillColor=none;align=left;verticalAlign=top;spacingLeft=4;spacingRight=4;overflow=hidden;rotatable=0;points=[[0,0.5],[1,0.5]];portConstraint=eastwest;whiteSpace=wrap;html=1;" parent="vjCn4-SrqpU4wcJ7OJ6y-16" vertex="1">
          <mxGeometry y="190" width="210" height="26" as="geometry" />
        </mxCell>
        <mxCell id="vjCn4-SrqpU4wcJ7OJ6y-55" style="edgeStyle=orthogonalEdgeStyle;rounded=0;orthogonalLoop=1;jettySize=auto;html=1;" parent="1" source="vjCn4-SrqpU4wcJ7OJ6y-22" target="vjCn4-SrqpU4wcJ7OJ6y-21" edge="1">
          <mxGeometry relative="1" as="geometry">
            <mxPoint x="490" y="305" as="targetPoint" />
            <Array as="points">
              <mxPoint x="700" y="390" />
            </Array>
          </mxGeometry>
        </mxCell>
        <mxCell id="vjCn4-SrqpU4wcJ7OJ6y-22" value="Cartao" style="swimlane;fontStyle=1;align=center;verticalAlign=top;childLayout=stackLayout;horizontal=1;startSize=26;horizontalStack=0;resizeParent=1;resizeParentMax=0;resizeLast=0;collapsible=1;marginBottom=0;whiteSpace=wrap;html=1;" parent="1" vertex="1">
          <mxGeometry x="630" y="305" width="180" height="130" as="geometry" />
        </mxCell>
        <mxCell id="WYJxad_hsXA3DpRj8TqN-25" value="Status:TipoStatus" style="text;strokeColor=none;fillColor=none;align=left;verticalAlign=top;spacingLeft=4;spacingRight=4;overflow=hidden;rotatable=0;points=[[0,0.5],[1,0.5]];portConstraint=eastwest;whiteSpace=wrap;html=1;" vertex="1" parent="vjCn4-SrqpU4wcJ7OJ6y-22">
          <mxGeometry y="26" width="180" height="26" as="geometry" />
        </mxCell>
        <mxCell id="vjCn4-SrqpU4wcJ7OJ6y-2" value="Limite:Double&lt;br&gt;" style="text;strokeColor=none;fillColor=none;align=left;verticalAlign=top;spacingLeft=4;spacingRight=4;overflow=hidden;rotatable=0;points=[[0,0.5],[1,0.5]];portConstraint=eastwest;whiteSpace=wrap;html=1;" parent="vjCn4-SrqpU4wcJ7OJ6y-22" vertex="1">
          <mxGeometry y="52" width="180" height="26" as="geometry" />
        </mxCell>
        <mxCell id="WYJxad_hsXA3DpRj8TqN-28" value="Numero:String" style="text;strokeColor=none;fillColor=none;align=left;verticalAlign=top;spacingLeft=4;spacingRight=4;overflow=hidden;rotatable=0;points=[[0,0.5],[1,0.5]];portConstraint=eastwest;whiteSpace=wrap;html=1;" vertex="1" parent="vjCn4-SrqpU4wcJ7OJ6y-22">
          <mxGeometry y="78" width="180" height="26" as="geometry" />
        </mxCell>
        <mxCell id="WYJxad_hsXA3DpRj8TqN-27" value="EnderecoCobranca:Endereco" style="text;strokeColor=none;fillColor=none;align=left;verticalAlign=top;spacingLeft=4;spacingRight=4;overflow=hidden;rotatable=0;points=[[0,0.5],[1,0.5]];portConstraint=eastwest;whiteSpace=wrap;html=1;" vertex="1" parent="vjCn4-SrqpU4wcJ7OJ6y-22">
          <mxGeometry y="104" width="180" height="26" as="geometry" />
        </mxCell>
        <mxCell id="vjCn4-SrqpU4wcJ7OJ6y-32" value="Transação" style="swimlane;fontStyle=0;childLayout=stackLayout;horizontal=1;startSize=26;fillColor=none;horizontalStack=0;resizeParent=1;resizeParentMax=0;resizeLast=0;collapsible=1;marginBottom=0;whiteSpace=wrap;html=1;" parent="1" vertex="1">
          <mxGeometry x="560" y="100" width="250" height="140" as="geometry" />
        </mxCell>
        <mxCell id="vjCn4-SrqpU4wcJ7OJ6y-33" value="Merchant: Merchant" style="text;strokeColor=none;fillColor=none;align=left;verticalAlign=top;spacingLeft=4;spacingRight=4;overflow=hidden;rotatable=0;points=[[0,0.5],[1,0.5]];portConstraint=eastwest;whiteSpace=wrap;html=1;" parent="vjCn4-SrqpU4wcJ7OJ6y-32" vertex="1">
          <mxGeometry y="26" width="250" height="26" as="geometry" />
        </mxCell>
        <mxCell id="vjCn4-SrqpU4wcJ7OJ6y-41" value="DataRegistro:Date" style="text;strokeColor=none;fillColor=none;align=left;verticalAlign=top;spacingLeft=4;spacingRight=4;overflow=hidden;rotatable=0;points=[[0,0.5],[1,0.5]];portConstraint=eastwest;whiteSpace=wrap;html=1;" parent="vjCn4-SrqpU4wcJ7OJ6y-32" vertex="1">
          <mxGeometry y="52" width="250" height="22" as="geometry" />
        </mxCell>
        <mxCell id="vjCn4-SrqpU4wcJ7OJ6y-60" value="Hora:TimeStemp" style="text;strokeColor=none;fillColor=none;align=left;verticalAlign=top;spacingLeft=4;spacingRight=4;overflow=hidden;rotatable=0;points=[[0,0.5],[1,0.5]];portConstraint=eastwest;whiteSpace=wrap;html=1;" parent="vjCn4-SrqpU4wcJ7OJ6y-32" vertex="1">
          <mxGeometry y="74" width="250" height="22" as="geometry" />
        </mxCell>
        <mxCell id="WYJxad_hsXA3DpRj8TqN-22" value="Valor:Double" style="text;strokeColor=none;fillColor=none;align=left;verticalAlign=top;spacingLeft=4;spacingRight=4;overflow=hidden;rotatable=0;points=[[0,0.5],[1,0.5]];portConstraint=eastwest;whiteSpace=wrap;html=1;" vertex="1" parent="vjCn4-SrqpU4wcJ7OJ6y-32">
          <mxGeometry y="96" width="250" height="22" as="geometry" />
        </mxCell>
        <mxCell id="vjCn4-SrqpU4wcJ7OJ6y-35" value="Descricao:string" style="text;strokeColor=none;fillColor=none;align=left;verticalAlign=top;spacingLeft=4;spacingRight=4;overflow=hidden;rotatable=0;points=[[0,0.5],[1,0.5]];portConstraint=eastwest;whiteSpace=wrap;html=1;" parent="vjCn4-SrqpU4wcJ7OJ6y-32" vertex="1">
          <mxGeometry y="118" width="250" height="22" as="geometry" />
        </mxCell>
        <mxCell id="vjCn4-SrqpU4wcJ7OJ6y-115" style="edgeStyle=orthogonalEdgeStyle;rounded=0;orthogonalLoop=1;jettySize=auto;html=1;" parent="1" source="vjCn4-SrqpU4wcJ7OJ6y-71" target="vjCn4-SrqpU4wcJ7OJ6y-110" edge="1">
          <mxGeometry relative="1" as="geometry">
            <Array as="points">
              <mxPoint x="700" y="706" />
              <mxPoint x="700" y="931" />
            </Array>
          </mxGeometry>
        </mxCell>
        <mxCell id="vjCn4-SrqpU4wcJ7OJ6y-71" value="Musica" style="swimlane;fontStyle=1;align=center;verticalAlign=top;childLayout=stackLayout;horizontal=1;startSize=26;horizontalStack=0;resizeParent=1;resizeParentMax=0;resizeLast=0;collapsible=1;marginBottom=0;whiteSpace=wrap;html=1;" parent="1" vertex="1">
          <mxGeometry x="770" y="585" width="230" height="260" as="geometry" />
        </mxCell>
        <mxCell id="vjCn4-SrqpU4wcJ7OJ6y-75" value="Nome:string" style="text;strokeColor=none;fillColor=none;align=left;verticalAlign=top;spacingLeft=4;spacingRight=4;overflow=hidden;rotatable=0;points=[[0,0.5],[1,0.5]];portConstraint=eastwest;whiteSpace=wrap;html=1;" parent="vjCn4-SrqpU4wcJ7OJ6y-71" vertex="1">
          <mxGeometry y="26" width="230" height="26" as="geometry" />
        </mxCell>
        <mxCell id="vjCn4-SrqpU4wcJ7OJ6y-165" value="Album: Album" style="text;strokeColor=none;fillColor=none;align=left;verticalAlign=top;spacingLeft=4;spacingRight=4;overflow=hidden;rotatable=0;points=[[0,0.5],[1,0.5]];portConstraint=eastwest;whiteSpace=wrap;html=1;" parent="vjCn4-SrqpU4wcJ7OJ6y-71" vertex="1">
          <mxGeometry y="52" width="230" height="26" as="geometry" />
        </mxCell>
        <mxCell id="vjCn4-SrqpU4wcJ7OJ6y-83" value="Faixa:Blob" style="text;strokeColor=none;fillColor=none;align=left;verticalAlign=top;spacingLeft=4;spacingRight=4;overflow=hidden;rotatable=0;points=[[0,0.5],[1,0.5]];portConstraint=eastwest;whiteSpace=wrap;html=1;" parent="vjCn4-SrqpU4wcJ7OJ6y-71" vertex="1">
          <mxGeometry y="78" width="230" height="26" as="geometry" />
        </mxCell>
        <mxCell id="WYJxad_hsXA3DpRj8TqN-1" value="Interpretes:List&amp;lt;Interprete&amp;gt;" style="text;strokeColor=none;fillColor=none;align=left;verticalAlign=top;spacingLeft=4;spacingRight=4;overflow=hidden;rotatable=0;points=[[0,0.5],[1,0.5]];portConstraint=eastwest;whiteSpace=wrap;html=1;" vertex="1" parent="vjCn4-SrqpU4wcJ7OJ6y-71">
          <mxGeometry y="104" width="230" height="26" as="geometry" />
        </mxCell>
        <mxCell id="vjCn4-SrqpU4wcJ7OJ6y-92" value="Artistas:List&amp;lt;Artistas&amp;gt;" style="text;strokeColor=none;fillColor=none;align=left;verticalAlign=top;spacingLeft=4;spacingRight=4;overflow=hidden;rotatable=0;points=[[0,0.5],[1,0.5]];portConstraint=eastwest;whiteSpace=wrap;html=1;" parent="vjCn4-SrqpU4wcJ7OJ6y-71" vertex="1">
          <mxGeometry y="130" width="230" height="26" as="geometry" />
        </mxCell>
        <mxCell id="vjCn4-SrqpU4wcJ7OJ6y-82" value="Estilo Musical: EstiloMusical" style="text;strokeColor=none;fillColor=none;align=left;verticalAlign=top;spacingLeft=4;spacingRight=4;overflow=hidden;rotatable=0;points=[[0,0.5],[1,0.5]];portConstraint=eastwest;whiteSpace=wrap;html=1;" parent="vjCn4-SrqpU4wcJ7OJ6y-71" vertex="1">
          <mxGeometry y="156" width="230" height="26" as="geometry" />
        </mxCell>
        <mxCell id="vjCn4-SrqpU4wcJ7OJ6y-85" value="Letra:string" style="text;strokeColor=none;fillColor=none;align=left;verticalAlign=top;spacingLeft=4;spacingRight=4;overflow=hidden;rotatable=0;points=[[0,0.5],[1,0.5]];portConstraint=eastwest;whiteSpace=wrap;html=1;" parent="vjCn4-SrqpU4wcJ7OJ6y-71" vertex="1">
          <mxGeometry y="182" width="230" height="26" as="geometry" />
        </mxCell>
        <mxCell id="vjCn4-SrqpU4wcJ7OJ6y-76" value="Autores:List&amp;lt;Autor&amp;gt;" style="text;strokeColor=none;fillColor=none;align=left;verticalAlign=top;spacingLeft=4;spacingRight=4;overflow=hidden;rotatable=0;points=[[0,0.5],[1,0.5]];portConstraint=eastwest;whiteSpace=wrap;html=1;" parent="vjCn4-SrqpU4wcJ7OJ6y-71" vertex="1">
          <mxGeometry y="208" width="230" height="26" as="geometry" />
        </mxCell>
        <mxCell id="vjCn4-SrqpU4wcJ7OJ6y-132" value="Status:TipoStatus" style="text;strokeColor=none;fillColor=none;align=left;verticalAlign=top;spacingLeft=4;spacingRight=4;overflow=hidden;rotatable=0;points=[[0,0.5],[1,0.5]];portConstraint=eastwest;whiteSpace=wrap;html=1;" parent="vjCn4-SrqpU4wcJ7OJ6y-71" vertex="1">
          <mxGeometry y="234" width="230" height="26" as="geometry" />
        </mxCell>
        <mxCell id="vjCn4-SrqpU4wcJ7OJ6y-158" style="edgeStyle=orthogonalEdgeStyle;rounded=0;orthogonalLoop=1;jettySize=auto;html=1;" parent="1" source="vjCn4-SrqpU4wcJ7OJ6y-86" target="vjCn4-SrqpU4wcJ7OJ6y-82" edge="1">
          <mxGeometry relative="1" as="geometry">
            <Array as="points">
              <mxPoint x="1110" y="730" />
              <mxPoint x="1110" y="750" />
            </Array>
          </mxGeometry>
        </mxCell>
        <mxCell id="vjCn4-SrqpU4wcJ7OJ6y-86" value="Estilo Musical" style="swimlane;fontStyle=0;childLayout=stackLayout;horizontal=1;startSize=26;fillColor=none;horizontalStack=0;resizeParent=1;resizeParentMax=0;resizeLast=0;collapsible=1;marginBottom=0;whiteSpace=wrap;html=1;" parent="1" vertex="1">
          <mxGeometry x="1150" y="704" width="140" height="52" as="geometry" />
        </mxCell>
        <mxCell id="vjCn4-SrqpU4wcJ7OJ6y-87" value="Nome:string" style="text;strokeColor=none;fillColor=none;align=left;verticalAlign=top;spacingLeft=4;spacingRight=4;overflow=hidden;rotatable=0;points=[[0,0.5],[1,0.5]];portConstraint=eastwest;whiteSpace=wrap;html=1;" parent="vjCn4-SrqpU4wcJ7OJ6y-86" vertex="1">
          <mxGeometry y="26" width="140" height="26" as="geometry" />
        </mxCell>
        <mxCell id="WYJxad_hsXA3DpRj8TqN-3" style="edgeStyle=orthogonalEdgeStyle;rounded=0;orthogonalLoop=1;jettySize=auto;html=1;" edge="1" parent="1" source="vjCn4-SrqpU4wcJ7OJ6y-89" target="WYJxad_hsXA3DpRj8TqN-1">
          <mxGeometry relative="1" as="geometry">
            <Array as="points">
              <mxPoint x="1080" y="670" />
              <mxPoint x="1080" y="702" />
            </Array>
          </mxGeometry>
        </mxCell>
        <mxCell id="vjCn4-SrqpU4wcJ7OJ6y-89" value="Interprete" style="swimlane;fontStyle=0;childLayout=stackLayout;horizontal=1;startSize=26;fillColor=none;horizontalStack=0;resizeParent=1;resizeParentMax=0;resizeLast=0;collapsible=1;marginBottom=0;whiteSpace=wrap;html=1;" parent="1" vertex="1">
          <mxGeometry x="1150" y="635" width="140" height="54" as="geometry" />
        </mxCell>
        <mxCell id="vjCn4-SrqpU4wcJ7OJ6y-90" value="Nome:string" style="text;strokeColor=none;fillColor=none;align=left;verticalAlign=top;spacingLeft=4;spacingRight=4;overflow=hidden;rotatable=0;points=[[0,0.5],[1,0.5]];portConstraint=eastwest;whiteSpace=wrap;html=1;" parent="vjCn4-SrqpU4wcJ7OJ6y-89" vertex="1">
          <mxGeometry y="26" width="140" height="28" as="geometry" />
        </mxCell>
        <mxCell id="WYJxad_hsXA3DpRj8TqN-16" style="edgeStyle=orthogonalEdgeStyle;rounded=0;orthogonalLoop=1;jettySize=auto;html=1;" edge="1" parent="1" source="vjCn4-SrqpU4wcJ7OJ6y-97" target="WYJxad_hsXA3DpRj8TqN-8">
          <mxGeometry relative="1" as="geometry" />
        </mxCell>
        <mxCell id="vjCn4-SrqpU4wcJ7OJ6y-97" value="Plano" style="swimlane;fontStyle=0;childLayout=stackLayout;horizontal=1;startSize=26;fillColor=none;horizontalStack=0;resizeParent=1;resizeParentMax=0;resizeLast=0;collapsible=1;marginBottom=0;whiteSpace=wrap;html=1;" parent="1" vertex="1">
          <mxGeometry x="-160" y="606" width="140" height="130" as="geometry" />
        </mxCell>
        <mxCell id="vjCn4-SrqpU4wcJ7OJ6y-98" value="Nome:string" style="text;strokeColor=none;fillColor=none;align=left;verticalAlign=top;spacingLeft=4;spacingRight=4;overflow=hidden;rotatable=0;points=[[0,0.5],[1,0.5]];portConstraint=eastwest;whiteSpace=wrap;html=1;" parent="vjCn4-SrqpU4wcJ7OJ6y-97" vertex="1">
          <mxGeometry y="26" width="140" height="26" as="geometry" />
        </mxCell>
        <mxCell id="vjCn4-SrqpU4wcJ7OJ6y-99" value="Valor:Double" style="text;strokeColor=none;fillColor=none;align=left;verticalAlign=top;spacingLeft=4;spacingRight=4;overflow=hidden;rotatable=0;points=[[0,0.5],[1,0.5]];portConstraint=eastwest;whiteSpace=wrap;html=1;" parent="vjCn4-SrqpU4wcJ7OJ6y-97" vertex="1">
          <mxGeometry y="52" width="140" height="26" as="geometry" />
        </mxCell>
        <mxCell id="vjCn4-SrqpU4wcJ7OJ6y-100" value="Vigencia:Periodo" style="text;strokeColor=none;fillColor=none;align=left;verticalAlign=top;spacingLeft=4;spacingRight=4;overflow=hidden;rotatable=0;points=[[0,0.5],[1,0.5]];portConstraint=eastwest;whiteSpace=wrap;html=1;" parent="vjCn4-SrqpU4wcJ7OJ6y-97" vertex="1">
          <mxGeometry y="78" width="140" height="26" as="geometry" />
        </mxCell>
        <mxCell id="vjCn4-SrqpU4wcJ7OJ6y-146" value="Status:TipoStatus" style="text;strokeColor=none;fillColor=none;align=left;verticalAlign=top;spacingLeft=4;spacingRight=4;overflow=hidden;rotatable=0;points=[[0,0.5],[1,0.5]];portConstraint=eastwest;whiteSpace=wrap;html=1;" parent="vjCn4-SrqpU4wcJ7OJ6y-97" vertex="1">
          <mxGeometry y="104" width="140" height="26" as="geometry" />
        </mxCell>
        <mxCell id="vjCn4-SrqpU4wcJ7OJ6y-105" style="edgeStyle=orthogonalEdgeStyle;rounded=0;orthogonalLoop=1;jettySize=auto;html=1;" parent="1" source="vjCn4-SrqpU4wcJ7OJ6y-101" target="vjCn4-SrqpU4wcJ7OJ6y-100" edge="1">
          <mxGeometry relative="1" as="geometry" />
        </mxCell>
        <mxCell id="WYJxad_hsXA3DpRj8TqN-14" style="edgeStyle=orthogonalEdgeStyle;rounded=0;orthogonalLoop=1;jettySize=auto;html=1;" edge="1" parent="1" source="vjCn4-SrqpU4wcJ7OJ6y-101" target="WYJxad_hsXA3DpRj8TqN-10">
          <mxGeometry relative="1" as="geometry" />
        </mxCell>
        <mxCell id="vjCn4-SrqpU4wcJ7OJ6y-101" value="Periodo" style="swimlane;fontStyle=0;childLayout=stackLayout;horizontal=1;startSize=26;fillColor=none;horizontalStack=0;resizeParent=1;resizeParentMax=0;resizeLast=0;collapsible=1;marginBottom=0;whiteSpace=wrap;html=1;" parent="1" vertex="1">
          <mxGeometry x="60" y="558" width="140" height="76" as="geometry" />
        </mxCell>
        <mxCell id="vjCn4-SrqpU4wcJ7OJ6y-102" value="De: Data" style="text;strokeColor=none;fillColor=none;align=left;verticalAlign=top;spacingLeft=4;spacingRight=4;overflow=hidden;rotatable=0;points=[[0,0.5],[1,0.5]];portConstraint=eastwest;whiteSpace=wrap;html=1;" parent="vjCn4-SrqpU4wcJ7OJ6y-101" vertex="1">
          <mxGeometry y="26" width="140" height="24" as="geometry" />
        </mxCell>
        <mxCell id="vjCn4-SrqpU4wcJ7OJ6y-103" value="Até: Data" style="text;strokeColor=none;fillColor=none;align=left;verticalAlign=top;spacingLeft=4;spacingRight=4;overflow=hidden;rotatable=0;points=[[0,0.5],[1,0.5]];portConstraint=eastwest;whiteSpace=wrap;html=1;" parent="vjCn4-SrqpU4wcJ7OJ6y-101" vertex="1">
          <mxGeometry y="50" width="140" height="26" as="geometry" />
        </mxCell>
        <mxCell id="vjCn4-SrqpU4wcJ7OJ6y-121" style="edgeStyle=orthogonalEdgeStyle;rounded=0;orthogonalLoop=1;jettySize=auto;html=1;" parent="1" source="vjCn4-SrqpU4wcJ7OJ6y-108" target="vjCn4-SrqpU4wcJ7OJ6y-1" edge="1">
          <mxGeometry relative="1" as="geometry">
            <mxPoint x="440" y="670" as="targetPoint" />
          </mxGeometry>
        </mxCell>
        <mxCell id="vjCn4-SrqpU4wcJ7OJ6y-108" value="PlayList" style="swimlane;fontStyle=0;childLayout=stackLayout;horizontal=1;startSize=26;fillColor=none;horizontalStack=0;resizeParent=1;resizeParentMax=0;resizeLast=0;collapsible=1;marginBottom=0;whiteSpace=wrap;html=1;" parent="1" vertex="1">
          <mxGeometry x="290" y="840" width="280" height="216" as="geometry" />
        </mxCell>
        <mxCell id="vjCn4-SrqpU4wcJ7OJ6y-109" value="Nome:string" style="text;strokeColor=none;fillColor=none;align=left;verticalAlign=top;spacingLeft=4;spacingRight=4;overflow=hidden;rotatable=0;points=[[0,0.5],[1,0.5]];portConstraint=eastwest;whiteSpace=wrap;html=1;" parent="vjCn4-SrqpU4wcJ7OJ6y-108" vertex="1">
          <mxGeometry y="26" width="280" height="26" as="geometry" />
        </mxCell>
        <mxCell id="vjCn4-SrqpU4wcJ7OJ6y-112" value="Autor?: Usuário" style="text;strokeColor=none;fillColor=none;align=left;verticalAlign=top;spacingLeft=4;spacingRight=4;overflow=hidden;rotatable=0;points=[[0,0.5],[1,0.5]];portConstraint=eastwest;whiteSpace=wrap;html=1;" parent="vjCn4-SrqpU4wcJ7OJ6y-108" vertex="1">
          <mxGeometry y="52" width="280" height="26" as="geometry" />
        </mxCell>
        <mxCell id="vjCn4-SrqpU4wcJ7OJ6y-110" value="Musicas: List&amp;lt;Musicas&amp;gt;" style="text;strokeColor=none;fillColor=none;align=left;verticalAlign=top;spacingLeft=4;spacingRight=4;overflow=hidden;rotatable=0;points=[[0,0.5],[1,0.5]];portConstraint=eastwest;whiteSpace=wrap;html=1;" parent="vjCn4-SrqpU4wcJ7OJ6y-108" vertex="1">
          <mxGeometry y="78" width="280" height="26" as="geometry" />
        </mxCell>
        <mxCell id="vjCn4-SrqpU4wcJ7OJ6y-128" value="Status:TipoStatus" style="text;strokeColor=none;fillColor=none;align=left;verticalAlign=top;spacingLeft=4;spacingRight=4;overflow=hidden;rotatable=0;points=[[0,0.5],[1,0.5]];portConstraint=eastwest;whiteSpace=wrap;html=1;" parent="vjCn4-SrqpU4wcJ7OJ6y-108" vertex="1">
          <mxGeometry y="104" width="280" height="26" as="geometry" />
        </mxCell>
        <mxCell id="vjCn4-SrqpU4wcJ7OJ6y-111" value="Tipo: TipoPlayList" style="text;strokeColor=none;fillColor=none;align=left;verticalAlign=top;spacingLeft=4;spacingRight=4;overflow=hidden;rotatable=0;points=[[0,0.5],[1,0.5]];portConstraint=eastwest;whiteSpace=wrap;html=1;" parent="vjCn4-SrqpU4wcJ7OJ6y-108" vertex="1">
          <mxGeometry y="130" width="280" height="26" as="geometry" />
        </mxCell>
        <mxCell id="vjCn4-SrqpU4wcJ7OJ6y-124" value="" style="line;strokeWidth=1;fillColor=none;align=left;verticalAlign=middle;spacingTop=-1;spacingLeft=3;spacingRight=3;rotatable=0;labelPosition=right;points=[];portConstraint=eastwest;strokeColor=inherit;" parent="vjCn4-SrqpU4wcJ7OJ6y-108" vertex="1">
          <mxGeometry y="156" width="280" height="8" as="geometry" />
        </mxCell>
        <mxCell id="vjCn4-SrqpU4wcJ7OJ6y-148" value="+AdicionarMusica(Musica):Void" style="text;strokeColor=none;fillColor=none;align=left;verticalAlign=top;spacingLeft=4;spacingRight=4;overflow=hidden;rotatable=0;points=[[0,0.5],[1,0.5]];portConstraint=eastwest;whiteSpace=wrap;html=1;" parent="vjCn4-SrqpU4wcJ7OJ6y-108" vertex="1">
          <mxGeometry y="164" width="280" height="26" as="geometry" />
        </mxCell>
        <mxCell id="vjCn4-SrqpU4wcJ7OJ6y-122" value="+Remover(Musica):Void" style="text;strokeColor=none;fillColor=none;align=left;verticalAlign=top;spacingLeft=4;spacingRight=4;overflow=hidden;rotatable=0;points=[[0,0.5],[1,0.5]];portConstraint=eastwest;whiteSpace=wrap;html=1;" parent="vjCn4-SrqpU4wcJ7OJ6y-108" vertex="1">
          <mxGeometry y="190" width="280" height="26" as="geometry" />
        </mxCell>
        <mxCell id="vjCn4-SrqpU4wcJ7OJ6y-127" style="edgeStyle=orthogonalEdgeStyle;rounded=0;orthogonalLoop=1;jettySize=auto;html=1;" parent="1" source="vjCn4-SrqpU4wcJ7OJ6y-126" target="vjCn4-SrqpU4wcJ7OJ6y-111" edge="1">
          <mxGeometry relative="1" as="geometry" />
        </mxCell>
        <mxCell id="vjCn4-SrqpU4wcJ7OJ6y-126" value="&lt;p style=&quot;margin:0px;margin-top:4px;text-align:center;text-decoration:underline;&quot;&gt;&lt;b&gt;TipoPlayList&lt;/b&gt;&lt;/p&gt;&lt;hr&gt;&lt;p style=&quot;margin:0px;margin-left:8px;&quot;&gt;Favorita = 0&lt;br&gt;Padrão = 1&lt;br&gt;Autoral = 2&lt;/p&gt;" style="verticalAlign=top;align=left;overflow=fill;fontSize=12;fontFamily=Helvetica;html=1;whiteSpace=wrap;" parent="1" vertex="1">
          <mxGeometry x="610" y="1056" width="160" height="90" as="geometry" />
        </mxCell>
        <mxCell id="vjCn4-SrqpU4wcJ7OJ6y-130" style="edgeStyle=orthogonalEdgeStyle;rounded=0;orthogonalLoop=1;jettySize=auto;html=1;exitX=0;exitY=0.5;exitDx=0;exitDy=0;" parent="1" source="vjCn4-SrqpU4wcJ7OJ6y-129" target="vjCn4-SrqpU4wcJ7OJ6y-128" edge="1">
          <mxGeometry relative="1" as="geometry">
            <Array as="points">
              <mxPoint x="970" y="1165" />
              <mxPoint x="970" y="957" />
            </Array>
          </mxGeometry>
        </mxCell>
        <mxCell id="vjCn4-SrqpU4wcJ7OJ6y-147" style="edgeStyle=orthogonalEdgeStyle;rounded=0;orthogonalLoop=1;jettySize=auto;html=1;" parent="1" source="vjCn4-SrqpU4wcJ7OJ6y-129" target="vjCn4-SrqpU4wcJ7OJ6y-146" edge="1">
          <mxGeometry relative="1" as="geometry">
            <Array as="points">
              <mxPoint x="-90" y="1190" />
            </Array>
          </mxGeometry>
        </mxCell>
        <mxCell id="vjCn4-SrqpU4wcJ7OJ6y-172" style="edgeStyle=orthogonalEdgeStyle;rounded=0;orthogonalLoop=1;jettySize=auto;html=1;" parent="1" source="vjCn4-SrqpU4wcJ7OJ6y-129" target="vjCn4-SrqpU4wcJ7OJ6y-132" edge="1">
          <mxGeometry relative="1" as="geometry">
            <Array as="points">
              <mxPoint x="1150" y="840" />
            </Array>
          </mxGeometry>
        </mxCell>
        <mxCell id="WYJxad_hsXA3DpRj8TqN-17" style="edgeStyle=orthogonalEdgeStyle;rounded=0;orthogonalLoop=1;jettySize=auto;html=1;" edge="1" parent="1" source="vjCn4-SrqpU4wcJ7OJ6y-129" target="WYJxad_hsXA3DpRj8TqN-11">
          <mxGeometry relative="1" as="geometry">
            <Array as="points">
              <mxPoint x="1180" y="1230" />
              <mxPoint x="-200" y="1230" />
              <mxPoint x="-200" y="449" />
            </Array>
          </mxGeometry>
        </mxCell>
        <mxCell id="WYJxad_hsXA3DpRj8TqN-29" style="edgeStyle=orthogonalEdgeStyle;rounded=0;orthogonalLoop=1;jettySize=auto;html=1;" edge="1" parent="1" source="vjCn4-SrqpU4wcJ7OJ6y-129" target="WYJxad_hsXA3DpRj8TqN-25">
          <mxGeometry relative="1" as="geometry">
            <Array as="points">
              <mxPoint x="1350" y="1165" />
              <mxPoint x="1350" y="344" />
            </Array>
          </mxGeometry>
        </mxCell>
        <mxCell id="vjCn4-SrqpU4wcJ7OJ6y-129" value="&lt;p style=&quot;margin:0px;margin-top:4px;text-align:center;text-decoration:underline;&quot;&gt;&lt;b&gt;TipoStatus&lt;/b&gt;&lt;/p&gt;&lt;hr&gt;&lt;p style=&quot;margin:0px;margin-left:8px;&quot;&gt;Ativo = 0&lt;br&gt;Inativo = 1&lt;br&gt;&lt;/p&gt;" style="verticalAlign=top;align=left;overflow=fill;fontSize=12;fontFamily=Helvetica;html=1;whiteSpace=wrap;" parent="1" vertex="1">
          <mxGeometry x="1150" y="1130" width="140" height="90" as="geometry" />
        </mxCell>
        <mxCell id="vjCn4-SrqpU4wcJ7OJ6y-46" value="Notificação" style="swimlane;fontStyle=1;align=center;verticalAlign=top;childLayout=stackLayout;horizontal=1;startSize=26;horizontalStack=0;resizeParent=1;resizeParentMax=0;resizeLast=0;collapsible=1;marginBottom=0;whiteSpace=wrap;html=1;" parent="1" vertex="1">
          <mxGeometry x="180" y="20" width="240" height="156" as="geometry" />
        </mxCell>
        <mxCell id="vjCn4-SrqpU4wcJ7OJ6y-45" value="Data:Data" style="text;strokeColor=none;fillColor=none;align=left;verticalAlign=top;spacingLeft=4;spacingRight=4;overflow=hidden;rotatable=0;points=[[0,0.5],[1,0.5]];portConstraint=eastwest;whiteSpace=wrap;html=1;" parent="vjCn4-SrqpU4wcJ7OJ6y-46" vertex="1">
          <mxGeometry y="26" width="240" height="26" as="geometry" />
        </mxCell>
        <mxCell id="vjCn4-SrqpU4wcJ7OJ6y-44" value="Titulo:string&lt;br&gt;" style="text;strokeColor=none;fillColor=none;align=left;verticalAlign=top;spacingLeft=4;spacingRight=4;overflow=hidden;rotatable=0;points=[[0,0.5],[1,0.5]];portConstraint=eastwest;whiteSpace=wrap;html=1;" parent="vjCn4-SrqpU4wcJ7OJ6y-46" vertex="1">
          <mxGeometry y="52" width="240" height="26" as="geometry" />
        </mxCell>
        <mxCell id="WYJxad_hsXA3DpRj8TqN-24" value="Mensagem: string" style="text;strokeColor=none;fillColor=none;align=left;verticalAlign=top;spacingLeft=4;spacingRight=4;overflow=hidden;rotatable=0;points=[[0,0.5],[1,0.5]];portConstraint=eastwest;whiteSpace=wrap;html=1;" vertex="1" parent="vjCn4-SrqpU4wcJ7OJ6y-46">
          <mxGeometry y="78" width="240" height="26" as="geometry" />
        </mxCell>
        <mxCell id="vjCn4-SrqpU4wcJ7OJ6y-43" value="Remetente: Usuario" style="text;strokeColor=none;fillColor=none;align=left;verticalAlign=top;spacingLeft=4;spacingRight=4;overflow=hidden;rotatable=0;points=[[0,0.5],[1,0.5]];portConstraint=eastwest;whiteSpace=wrap;html=1;" parent="vjCn4-SrqpU4wcJ7OJ6y-46" vertex="1">
          <mxGeometry y="104" width="240" height="26" as="geometry" />
        </mxCell>
        <mxCell id="WYJxad_hsXA3DpRj8TqN-23" value="Destinatario: Usuario" style="text;strokeColor=none;fillColor=none;align=left;verticalAlign=top;spacingLeft=4;spacingRight=4;overflow=hidden;rotatable=0;points=[[0,0.5],[1,0.5]];portConstraint=eastwest;whiteSpace=wrap;html=1;" vertex="1" parent="vjCn4-SrqpU4wcJ7OJ6y-46">
          <mxGeometry y="130" width="240" height="26" as="geometry" />
        </mxCell>
        <mxCell id="vjCn4-SrqpU4wcJ7OJ6y-167" style="edgeStyle=orthogonalEdgeStyle;rounded=0;orthogonalLoop=1;jettySize=auto;html=1;" parent="1" source="vjCn4-SrqpU4wcJ7OJ6y-150" target="vjCn4-SrqpU4wcJ7OJ6y-165" edge="1">
          <mxGeometry relative="1" as="geometry">
            <Array as="points">
              <mxPoint x="1040" y="590" />
              <mxPoint x="1040" y="650" />
            </Array>
          </mxGeometry>
        </mxCell>
        <mxCell id="vjCn4-SrqpU4wcJ7OJ6y-150" value="Album" style="swimlane;fontStyle=0;childLayout=stackLayout;horizontal=1;startSize=26;fillColor=none;horizontalStack=0;resizeParent=1;resizeParentMax=0;resizeLast=0;collapsible=1;marginBottom=0;whiteSpace=wrap;html=1;" parent="1" vertex="1">
          <mxGeometry x="1150" y="540" width="140" height="78" as="geometry" />
        </mxCell>
        <mxCell id="vjCn4-SrqpU4wcJ7OJ6y-155" value="Nome:string" style="text;strokeColor=none;fillColor=none;align=left;verticalAlign=top;spacingLeft=4;spacingRight=4;overflow=hidden;rotatable=0;points=[[0,0.5],[1,0.5]];portConstraint=eastwest;whiteSpace=wrap;html=1;" parent="vjCn4-SrqpU4wcJ7OJ6y-150" vertex="1">
          <mxGeometry y="26" width="140" height="26" as="geometry" />
        </mxCell>
        <mxCell id="vjCn4-SrqpU4wcJ7OJ6y-164" value="Musicas:List&amp;lt;Musica&amp;gt;" style="text;strokeColor=none;fillColor=none;align=left;verticalAlign=top;spacingLeft=4;spacingRight=4;overflow=hidden;rotatable=0;points=[[0,0.5],[1,0.5]];portConstraint=eastwest;whiteSpace=wrap;html=1;" parent="vjCn4-SrqpU4wcJ7OJ6y-150" vertex="1">
          <mxGeometry y="52" width="140" height="26" as="geometry" />
        </mxCell>
        <mxCell id="vjCn4-SrqpU4wcJ7OJ6y-77" value="Autor" style="swimlane;fontStyle=0;childLayout=stackLayout;horizontal=1;startSize=26;fillColor=none;horizontalStack=0;resizeParent=1;resizeParentMax=0;resizeLast=0;collapsible=1;marginBottom=0;whiteSpace=wrap;html=1;" parent="1" vertex="1">
          <mxGeometry x="1150" y="769" width="140" height="52" as="geometry" />
        </mxCell>
        <mxCell id="vjCn4-SrqpU4wcJ7OJ6y-78" value="Nome:string" style="text;strokeColor=none;fillColor=none;align=left;verticalAlign=top;spacingLeft=4;spacingRight=4;overflow=hidden;rotatable=0;points=[[0,0.5],[1,0.5]];portConstraint=eastwest;whiteSpace=wrap;html=1;" parent="vjCn4-SrqpU4wcJ7OJ6y-77" vertex="1">
          <mxGeometry y="26" width="140" height="26" as="geometry" />
        </mxCell>
        <mxCell id="WYJxad_hsXA3DpRj8TqN-2" style="edgeStyle=orthogonalEdgeStyle;rounded=0;orthogonalLoop=1;jettySize=auto;html=1;entryX=1.017;entryY=0.051;entryDx=0;entryDy=0;entryPerimeter=0;" edge="1" parent="1" source="vjCn4-SrqpU4wcJ7OJ6y-77" target="vjCn4-SrqpU4wcJ7OJ6y-76">
          <mxGeometry relative="1" as="geometry" />
        </mxCell>
        <mxCell id="WYJxad_hsXA3DpRj8TqN-12" style="edgeStyle=orthogonalEdgeStyle;rounded=0;orthogonalLoop=1;jettySize=auto;html=1;" edge="1" parent="1" source="WYJxad_hsXA3DpRj8TqN-7" target="WYJxad_hsXA3DpRj8TqN-5">
          <mxGeometry relative="1" as="geometry" />
        </mxCell>
        <mxCell id="WYJxad_hsXA3DpRj8TqN-7" value="Assinatura" style="swimlane;fontStyle=0;childLayout=stackLayout;horizontal=1;startSize=26;fillColor=none;horizontalStack=0;resizeParent=1;resizeParentMax=0;resizeLast=0;collapsible=1;marginBottom=0;whiteSpace=wrap;html=1;" vertex="1" parent="1">
          <mxGeometry x="-160" y="410" width="140" height="104" as="geometry" />
        </mxCell>
        <mxCell id="WYJxad_hsXA3DpRj8TqN-11" value="Status:TipoStatus" style="text;strokeColor=none;fillColor=none;align=left;verticalAlign=top;spacingLeft=4;spacingRight=4;overflow=hidden;rotatable=0;points=[[0,0.5],[1,0.5]];portConstraint=eastwest;whiteSpace=wrap;html=1;" vertex="1" parent="WYJxad_hsXA3DpRj8TqN-7">
          <mxGeometry y="26" width="140" height="26" as="geometry" />
        </mxCell>
        <mxCell id="WYJxad_hsXA3DpRj8TqN-10" value="Vigencia:Periodo" style="text;strokeColor=none;fillColor=none;align=left;verticalAlign=top;spacingLeft=4;spacingRight=4;overflow=hidden;rotatable=0;points=[[0,0.5],[1,0.5]];portConstraint=eastwest;whiteSpace=wrap;html=1;" vertex="1" parent="WYJxad_hsXA3DpRj8TqN-7">
          <mxGeometry y="52" width="140" height="26" as="geometry" />
        </mxCell>
        <mxCell id="WYJxad_hsXA3DpRj8TqN-8" value="Plano:Plano" style="text;strokeColor=none;fillColor=none;align=left;verticalAlign=top;spacingLeft=4;spacingRight=4;overflow=hidden;rotatable=0;points=[[0,0.5],[1,0.5]];portConstraint=eastwest;whiteSpace=wrap;html=1;" vertex="1" parent="WYJxad_hsXA3DpRj8TqN-7">
          <mxGeometry y="78" width="140" height="26" as="geometry" />
        </mxCell>
        <mxCell id="WYJxad_hsXA3DpRj8TqN-18" value="Merchant" style="swimlane;fontStyle=0;childLayout=stackLayout;horizontal=1;startSize=26;fillColor=none;horizontalStack=0;resizeParent=1;resizeParentMax=0;resizeLast=0;collapsible=1;marginBottom=0;whiteSpace=wrap;html=1;" vertex="1" parent="1">
          <mxGeometry x="870" y="100" width="130" height="52" as="geometry" />
        </mxCell>
        <mxCell id="WYJxad_hsXA3DpRj8TqN-19" value="Nome:string" style="text;strokeColor=none;fillColor=none;align=left;verticalAlign=top;spacingLeft=4;spacingRight=4;overflow=hidden;rotatable=0;points=[[0,0.5],[1,0.5]];portConstraint=eastwest;whiteSpace=wrap;html=1;" vertex="1" parent="WYJxad_hsXA3DpRj8TqN-18">
          <mxGeometry y="26" width="130" height="26" as="geometry" />
        </mxCell>
        <mxCell id="WYJxad_hsXA3DpRj8TqN-21" style="edgeStyle=orthogonalEdgeStyle;rounded=0;orthogonalLoop=1;jettySize=auto;html=1;" edge="1" parent="1" source="WYJxad_hsXA3DpRj8TqN-19" target="vjCn4-SrqpU4wcJ7OJ6y-33">
          <mxGeometry relative="1" as="geometry" />
        </mxCell>
      </root>
    </mxGraphModel>
  </diagram>
</mxfile>
